<?xml version="1.0" encoding="UTF-8"?>
<svg id="Layer_2" data-name="Layer 2" xmlns="favicon.svg" viewBox="0 0 447 379.72">
  <defs>
    <style>
      .cls-1 {
        fill: #1bb79d;
        stroke-width: 0px;
      }
    </style>
  </defs>
  <g id="Layer_1-2" data-name="Layer 1">
    <path class="cls-1" d="M345.19,0H101.81C45.58,0,0,45.58,0,101.81v176.1c0,56.23,45.58,101.81,101.81,101.81h243.38c56.23,0,101.81-45.58,101.81-101.81V101.81c0-56.23-45.58-101.81-101.81-101.81ZM388.69,98.66c-7.26,6.4-16.27,5.94-24.79,3.28-.35-.11-.69-.22-1.03-.33-52.45-16.83-84.08-29.95-125.63-36.38-46.87-7.27-119.9,11.96-141.62,63.24-21.11,49.85,3.1,111.77,27.99,129.06,19.76,13.73,45.84,18.7,69.73,9.29,26.14-10.31,34.16-43.83,14.98-64.36-.39-.42-.78-.83-1.2-1.25h-8.57l-20.77-16.06s44.87,12.88,31.85-23.09c0,0-29.36-14.19-23.49,7.24l-21.42-15.98s8.02-10.33,21.58-9.34c13.56,1,43.95,11.76,38.39,45.74,0,0,7.85,2.29,14.14-3.99l3.13,1-.28-31.55h-23.85l-18.25-15.53,78.36.85,19.27,14.68-39.3.65-1.13,125.46c2.19,1.2,28.69,11.63,37.59-1.39,0,0-9.39-.4-6.26-9.81,1.86-5.58,7.74-8.31,13.7-5.58,6.25,2.87,7.44,11.66-1.56,21.63-9.49,10.52-30.29,8.07-37.01,6.07l-2.32-.63c-5.81-1.95-13.4-8.61-19.09-15.07v-72.82s-12.56-5.56-18.56-11.13l.26-.51c-1.53,2.46-4.82,6.24-11.24,8.07,0,0,14.64,8.97,18.77,28.95,4.15,19.98-4.02,51.71-40.85,53.71-36.83,2-111.55-28.27-118.4-100.22-6.85-71.95,51.61-130.19,119.06-132.34,67.46-2.14,118.85,24.33,138.54,31.27,6.02,2.12,14.76,5.13,21.91,7.65,15.31,4.24,24.95,3.68,24.95,3.68-7.74-3.22-7.37-24.71,7.46-22.58,9.02,1.29,11.53,7.07,11.89,12.24.42,6.15-2.28,12.1-6.9,16.17Z"/>
  </g>
</svg>